Coordinates
version=1
nRows=9
nColumns=24
inDegrees=yes

Units are S.I. units (second, meters, Newtons, ...)
Angles are in degrees.

endheader
time	pelvis_tilt	pelvis_list	pelvis_rotation	pelvis_tx	pelvis_ty	pelvis_tz	hip_flexion_r	hip_adduction_r	hip_rotation_r	knee_angle_r	ankle_angle_r	subtalar_angle_r	mtp_angle_r	hip_flexion_l	hip_adduction_l	hip_rotation_l	knee_angle_l	ankle_angle_l	subtalar_angle_l	mtp_angle_l	lumbar_extension	lumbar_bending	lumbar_rotation
      3.98000000	     91.55933774	     33.34714134	    -91.82677318	      1.03009862	      0.28157344	      1.07830929	     13.55156876	     -6.45158030	      3.62161462	    -85.02596386	    -10.49871299	      0.00000000	      0.00000000	     10.29689832	     -7.23952025	     -7.06840598	    -73.44337692	    -10.07264095	      0.00000000	      0.00000000	      0.00000000	      0.00000000	      0.00000000
      3.99000000	     91.55463714	     33.34801648	    -91.83253231	      1.03015317	      0.28155844	      1.07837745	     13.54112717	     -6.40961017	      3.55526369	    -84.13974329	    -10.48425003	      0.00000000	      0.00000000	     10.26804125	     -7.27648513	     -7.06282388	    -73.43133740	    -10.11628373	      0.00000000	      0.00000000	      0.00000000	      0.00000000	      0.00000000
      4.00000000	     91.55218031	     33.35061581	    -91.84398886	      1.03020986	      0.28155497	      1.07843915	     13.52994903	     -6.37016885	      3.50846549	    -83.21234014	    -10.45035303	      0.00000000	      0.00000000	     10.23842867	     -7.30462846	     -7.05297994	    -73.42338185	    -10.16687657	      0.00000000	      0.00000000	      0.00000000	      0.00000000	      0.00000000
      4.01000000	     91.55276958	     33.35351658	    -91.86101255	      1.03026440	      0.28155743	      1.07849311	     13.52087061	     -6.33298133	      3.48063526	    -82.25390403	    -10.42611722	      0.00000000	      0.00000000	     10.20737176	     -7.32273258	     -7.03818561	    -73.41948195	    -10.21761169	      0.00000000	      0.00000000	      0.00000000	      0.00000000	      0.00000000
      4.02000000	     91.55797346	     33.35519459	    -91.88175492	      1.03031635	      0.28157972	      1.07855165	     13.51635347	     -6.29897251	      3.47172867	    -81.27390022	    -10.43543289	      0.00000000	      0.00000000	     10.17500537	     -7.33144406	     -7.01799336	    -73.41849033	    -10.26231759	      0.00000000	      0.00000000	      0.00000000	      0.00000000	      0.00000000
      4.03000000	     91.56875856	     33.35490828	    -91.90310353	      1.03037016	      0.28163212	      1.07860647	     13.51760503	     -6.27066702	      3.48149696	    -80.27985704	    -10.48787781	      0.00000000	      0.00000000	     10.14240043	     -7.33237922	     -6.99301160	    -73.41859753	    -10.29670966	      0.00000000	      0.00000000	      0.00000000	      0.00000000	      0.00000000
      4.04000000	     91.58457174	     33.35291443	    -91.92220621	      1.03041969	      0.28170347	      1.07864095	     13.52484450	     -6.25136759	      3.50805432	    -79.27687399	    -10.57559476	      0.00000000	      0.00000000	     10.11096667	     -7.32701624	     -6.96498491	    -73.41832197	    -10.31897011	      0.00000000	      0.00000000	      0.00000000	      0.00000000	      0.00000000
      4.05000000	     91.60391549	     33.35000685	    -91.93805526	      1.03044913	      0.28177440	      1.07865778	     13.53822322	     -6.24279937	      3.54689543	    -78.26803922	    -10.67672807	      0.00000000	      0.00000000	     10.08162489	     -7.31591656	     -6.93603931	    -73.41739003	    -10.32966837	      0.00000000	      0.00000000	      0.00000000	      0.00000000	      0.00000000
      4.06000000	     91.62557347	     33.34699928	    -91.95193662	      1.03045674	      0.28184923	      1.07867375	     13.55795916	     -6.24330558	      3.59200270	    -77.25554004	    -10.76348139	      0.00000000	      0.00000000	     10.05479973	     -7.29899140	     -6.90740479	    -73.41667938	    -10.33129448	      0.00000000	      0.00000000	      0.00000000	      0.00000000	      0.00000000
